<?xml version="1.0" encoding="UTF-8" standalone="no"?> <!-- Created with PhotoLine 22.51 (www.pl32.de) --> <svg xmlns="http://www.w3.org/2000/svg" xmlns:xlink="http://www.w3.org/1999/xlink" width="1235" height="178" viewBox="0 0 1235 178"><g transform="matrix(1 0 0 1 0 -5)"><g id="Logos"><g id="Logo"><path fill="#002f6c" d="M0 23.7 L8.9 14.8 L8.9 175.7 L0 175.7 Z M26.6 16.2 L132.9 16.2 L132.9 7.4 L17.7 7.4 L17.7 113.7 L115.5 113.7 L115.5 104.8 L26.5 104.8 L26.5 16.2 Z M128.9 87.1 L44.3 87.1 L44.3 51.7 L116.7 51.7 L125.6 42.8 L44.3 42.8 L44.3 34 L132.9 34 L132.9 25.1 L44.3 25.1 L35.4 25.1 L35.4 96 L120.1 96 Z M17.7 175.7 L26.6 175.7 L26.6 131.4 L35.5 131.4 L35.5 168.3 L44.4 159.4 L44.4 131.4 L115.7 131.4 L115.7 122.5 L17.7 122.5 Z M449 7.4 L449 109.3 C449 133 438.4 153.4 413.7 169 L413.5 168.7 C429.7 155.8 440.1 139.3 440.1 118 L440.1 7.4 L431.2 7.4 L431.2 117.8 C431.2 149.6 405.4 173.5 373.6 173.5 C341.8 173.5 316 149.6 316 117.8 L316 14.8 L307.1 23.7 L307.1 118 C307.1 154.7 336.8 182.2 373.5 182.2 C374.3 182.2 382.4 182.2 382.4 182.2 C418.5 182.2 457.7 155.5 457.7 109.4 C457.7 109.4 457.7 7.4 457.7 7.4 L449 7.4 Z M373.7 164.6 C400.6 164.6 422.4 144.7 422.4 117.8 L422.4 117.8 L422.4 14.8 L413.5 23.7 L413.5 109.3 C413.5 126.4 399.6 138.1 382.5 138.1 C365.4 138.1 351.5 126.4 351.5 109.3 L351.5 7.4 L342.6 7.4 L342.6 109.3 C342.6 131.3 360.4 146.9 382.5 146.9 C391.5 146.9 402.4 142.5 409.9 134.6 L410.1 134.9 C403.1 147.8 390.3 155.8 373.7 155.8 C351.8 155.8 334.1 140 333.8 118.2 L333.8 118.2 L333.8 7.4 L325 7.4 L325 118.1 L325 118.1 C325.2 144.8 346.9 164.6 373.7 164.6 Z M176.9 122.5 L154.5 175.6 L163.4 175.6 L163.4 175.6 L163.4 175.6 L174.6 149 L249.6 149 L260.8 175.6 L269.7 175.6 L254.8 140.2 L178.4 140.2 L182.1 131.3 L259.9 131.3 L278.5 175.6 L287.4 175.6 L265 122.5 L176.9 122.5 Z M189.9 7.4 L124.8 161.8 L130.4 169.5 L198.7 7.4 Z M225.3 7.4 L293.5 169.5 L299.1 161.8 L234.1 7.4 L225.3 7.4 Z M171.7 113.7 L145.5 175.7 L136.6 175.7 L203.1 17.9 L239.7 104.8 L248.6 104.8 L207.6 7.4 L216.5 7.4 L261.3 113.7 Z M212.1 60 L193.2 104.8 L230.9 104.8 Z M175.4 104.8 L184.3 104.8 L207.6 49.5 L203.2 39 Z"></path></g></g><g id="Text1"><g id="Text1_00000137811984454315948630000018325526472012500123_"><path fill="#002f6c" d="M524.3 13.1 L508.4 13.1 L508.4 21.9 L520.3 21.9 L520.3 27.6 L508.4 27.6 L508.4 42.6 L502.1 42.6 L502.1 7.4 L524.3 7.4 Z M543.1 17 L542.1 23.2 C541.1 22.7 540 22.4 538.8 22.4 C534.6 22.4 533.6 25.7 533.6 29.6 L533.6 42.7 L527.6 42.7 L527.6 17.1 L533.5 17.1 L533.5 20.3 L533.6 20.3 C534.9 17.9 537.4 16.5 540.3 16.5 C541.1 16.5 542.2 16.6 543.1 17 Z M554.8 9.4 C554.8 11.4 553.1 13 551 13 C548.9 13 547.2 11.4 547.2 9.4 C547.2 7.4 548.9 5.8 551 5.8 C553.1 5.8 554.8 7.4 554.8 9.4 Z M554 42.6 L548 42.6 L548 17.1 L554 17.1 Z M582.9 39 C580 41.8 576.7 43.2 572.9 43.2 C565.3 43.2 560.3 37.8 560.3 29.8 C560.3 21.9 565.1 16.5 572.2 16.5 C579.1 16.5 583.6 21.5 583.6 29.5 C583.6 30.3 583.6 31.2 583.5 31.9 L566.3 31.9 C567 35.9 569.4 38.1 573 38.1 C575.3 38.1 577.2 37.2 579.3 35.1 Z M566.3 27.6 L577.8 27.6 C577.6 23.6 575.5 21.4 572.2 21.4 C568.8 21.4 566.7 23.6 566.3 27.6 Z M588.7 29.8 C588.7 21.6 592.9 16.5 599.1 16.5 C602.3 16.5 604.8 17.8 606.5 20 L606.6 20 L606.6 6.9 L612.6 5.3 L612.6 42.6 L606.8 42.6 L606.8 39.5 L606.7 39.5 C604.9 41.7 602.2 43.2 599 43.2 C592.9 43.2 588.7 38 588.7 29.8 Z M594.6 29.7 C594.6 34.9 596.8 37.9 600.5 37.9 C602.8 37.9 604.7 36.8 606.6 34.5 L606.6 25.2 C604.9 22.9 602.9 21.8 600.5 21.8 C596.6 21.9 594.6 24.7 594.6 29.7 Z M635.7 17 L634.7 23.2 C633.7 22.7 632.6 22.4 631.4 22.4 C627.2 22.4 626.2 25.7 626.2 29.6 L626.2 42.7 L620.2 42.7 L620.2 17.1 L626.1 17.1 L626.1 20.3 L626.2 20.3 C627.5 17.9 630 16.5 632.9 16.5 C633.7 16.5 634.7 16.6 635.7 17 Z M647.4 9.4 C647.4 11.4 645.7 13 643.6 13 C641.5 13 639.8 11.4 639.8 9.4 C639.8 7.4 641.5 5.8 643.6 5.8 C645.7 5.8 647.4 7.4 647.4 9.4 Z M646.6 42.6 L640.6 42.6 L640.6 17.1 L646.6 17.1 Z M674.3 39.1 C671.8 41.9 668.8 43.2 665.1 43.2 C657.8 43.2 652.9 38 652.9 29.9 C652.9 21.9 657.9 16.5 665.2 16.5 C669 16.5 672.2 18 674.4 20.8 L670.3 24.8 C668.8 22.8 667.2 22 665.2 22 C661.4 22 658.8 25.2 658.8 29.9 C658.8 34.6 661.3 37.9 665 37.9 C667 37.9 668.6 37 670.2 35.1 Z M701.4 42.6 L695.4 42.6 L695.4 28 C695.4 24.2 694.3 21.8 690.7 21.8 C686.6 21.8 685.3 25.1 685.3 28 L685.3 42.6 L679.3 42.6 L679.3 6.9 L685.3 5.3 L685.3 20.2 L685.4 20.2 C686.9 18 689.5 16.5 692.9 16.5 C698.8 16.5 701.3 20.8 701.3 26.7 L701.3 42.6 Z M720.7 29.8 L708.2 29.8 L708.2 24.1 L720.7 24.1 Z M736.8 7.4 L743.4 7.4 L756.5 42.6 L749.6 42.6 L747.1 35.1 L732.9 35.1 L730.3 42.6 L723.6 42.6 Z M745.2 29.5 L740.1 14.6 L740 14.6 L734.9 29.5 Z M767.7 42.6 L761.7 42.6 L761.7 6.8 L767.7 5.5 Z M796.7 39 C793.8 41.8 790.5 43.2 786.7 43.2 C779.1 43.2 774.1 37.8 774.1 29.8 C774.1 21.9 778.9 16.5 786 16.5 C792.9 16.5 797.4 21.5 797.4 29.5 C797.4 30.3 797.4 31.2 797.3 31.9 L780.1 31.9 C780.8 35.9 783.2 38.1 786.8 38.1 C789.1 38.1 791 37.2 793.1 35.1 Z M780.1 27.6 L791.6 27.6 C791.4 23.6 789.4 21.4 786 21.4 C782.6 21.4 780.5 23.6 780.1 27.6 Z M824.8 42.6 L818 42.6 L812.5 33.8 L812.4 33.8 L807.1 42.6 L800.4 42.6 L809.1 29.4 L801 17.1 L807.7 17.1 L812.5 24.9 L812.6 24.9 L817.4 17.1 L824 17.1 L816 29.3 Z M838.9 26.8 C840.6 26.8 842.1 26.9 843.7 27.3 L843.7 26.4 C843.7 23.2 841.8 21.4 838.1 21.4 C836.1 21.4 833.7 21.9 831.6 22.9 L830.3 17.9 C832.6 17 835.8 16.4 838.7 16.4 C845.9 16.4 849.6 19.7 849.6 26.2 L849.6 42.5 L843.9 42.5 L843.9 39.8 L843.8 39.8 C841.6 42 839.3 43.1 836.3 43.1 C831.1 43.1 827.9 39.9 827.9 35 C827.9 29.7 831.8 26.8 838.9 26.8 Z M837.9 38.7 C840.1 38.7 842.1 37.7 843.7 35.7 L843.7 31.3 C842.3 31 840.8 30.8 839.5 30.8 C835.7 30.8 833.6 32.3 833.6 34.9 C833.6 37.2 835.3 38.7 837.9 38.7 Z M879 42.6 L873 42.6 L873 28 C873 24.3 871.9 21.8 868.3 21.8 C864.1 21.8 863 25.2 863 28 L863 42.6 L857 42.6 L857 17.1 L862.9 17.1 L862.9 20.2 L863 20.2 C864.5 17.9 867.2 16.5 870.5 16.5 C876.3 16.5 878.9 20.7 878.9 26.7 L878.9 42.6 Z M885.2 29.8 C885.2 21.6 889.4 16.5 895.6 16.5 C898.8 16.5 901.3 17.8 903 20 L903.1 20 L903.1 6.9 L909.1 5.3 L909.1 42.6 L903.3 42.6 L903.3 39.5 L903.2 39.5 C901.4 41.7 898.7 43.2 895.5 43.2 C889.4 43.2 885.2 38 885.2 29.8 Z M891.1 29.7 C891.1 34.9 893.3 37.9 897 37.9 C899.3 37.9 901.2 36.8 903.1 34.5 L903.1 25.2 C901.4 22.9 899.4 21.8 897 21.8 C893.2 21.9 891.1 24.7 891.1 29.7 Z M938.1 39 C935.2 41.8 931.9 43.2 928.1 43.2 C920.5 43.2 915.5 37.8 915.5 29.8 C915.5 21.9 920.3 16.5 927.4 16.5 C934.3 16.5 938.8 21.5 938.8 29.5 C938.8 30.3 938.8 31.2 938.7 31.9 L921.5 31.9 C922.2 35.9 924.6 38.1 928.2 38.1 C930.5 38.1 932.4 37.2 934.5 35.1 Z M921.4 27.6 L932.9 27.6 C932.7 23.6 930.7 21.4 927.3 21.4 C923.9 21.4 921.9 23.6 921.4 27.6 Z M960.6 17 L959.6 23.2 C958.6 22.7 957.5 22.4 956.3 22.4 C952.1 22.4 951.1 25.7 951.1 29.6 L951.1 42.7 L945.1 42.7 L945.1 17.1 L951 17.1 L951 20.3 L951.1 20.3 C952.4 17.9 954.9 16.5 957.8 16.5 C958.6 16.5 959.7 16.6 960.6 17 Z M976.8 29.8 L964.3 29.8 L964.3 24.1 L976.8 24.1 Z M1011.9 28.6 C1011.9 37.1 1007.5 43.2 998.1 43.2 C988.7 43.2 984.4 37.2 984.4 28.6 L984.4 7.3 L990.8 7.3 L990.8 28.3 C990.8 33.6 993.1 37.2 998.3 37.2 C1003.5 37.2 1005.5 33.7 1005.5 28.3 L1005.5 7.3 L1011.9 7.3 L1011.9 28.6 Z M1041.6 42.6 L1035.6 42.6 L1035.6 28 C1035.6 24.3 1034.5 21.8 1030.9 21.8 C1026.7 21.8 1025.6 25.2 1025.6 28 L1025.6 42.6 L1019.6 42.6 L1019.6 17.1 L1025.5 17.1 L1025.5 20.2 L1025.6 20.2 C1027.1 17.9 1029.8 16.5 1033.1 16.5 C1038.9 16.5 1041.5 20.7 1041.5 26.7 L1041.5 42.6 Z M1055.9 9.4 C1055.9 11.4 1054.2 13 1052.1 13 C1050 13 1048.3 11.4 1048.3 9.4 C1048.3 7.4 1050 5.8 1052.1 5.8 C1054.2 5.8 1055.9 7.4 1055.9 9.4 Z M1055.1 42.6 L1049.1 42.6 L1049.1 17.1 L1055.1 17.1 Z M1084.8 17.1 L1075.5 42.6 L1069.3 42.6 L1060.1 17.1 L1066.6 17.1 L1072.5 35.6 L1072.6 35.6 L1078.5 17.1 L1084.8 17.1 Z M1110.1 39 C1107.2 41.8 1103.9 43.2 1100.1 43.2 C1092.5 43.2 1087.5 37.8 1087.5 29.8 C1087.5 21.9 1092.3 16.5 1099.4 16.5 C1106.3 16.5 1110.8 21.5 1110.8 29.5 C1110.8 30.3 1110.8 31.2 1110.7 31.9 L1093.5 31.9 C1094.2 35.9 1096.6 38.1 1100.2 38.1 C1102.5 38.1 1104.4 37.2 1106.5 35.1 Z M1093.5 27.6 L1105 27.6 C1104.8 23.6 1102.7 21.4 1099.4 21.4 C1096 21.4 1093.9 23.6 1093.5 27.6 Z M1132.7 17 L1131.7 23.2 C1130.7 22.7 1129.6 22.4 1128.4 22.4 C1124.2 22.4 1123.2 25.7 1123.2 29.6 L1123.2 42.7 L1117.2 42.7 L1117.2 17.1 L1123.1 17.1 L1123.1 20.3 L1123.2 20.3 C1124.5 17.9 1127 16.5 1129.9 16.5 C1130.7 16.5 1131.7 16.6 1132.7 17 Z M1138.3 35.4 C1140.8 37.3 1143.3 38.3 1145.5 38.3 C1147.7 38.3 1149.3 37.3 1149.3 35.8 C1149.3 31.4 1136.5 33 1136.5 24.5 C1136.5 19.8 1140.4 16.6 1146.2 16.6 C1149.3 16.6 1152.3 17.5 1155 19.2 L1152.2 23.9 C1150 22.4 1148 21.7 1146.1 21.7 C1143.9 21.7 1142.4 22.7 1142.4 24.1 C1142.4 28.2 1155.2 26.8 1155.2 35.3 C1155.2 40.1 1151.2 43.4 1145.3 43.4 C1141.9 43.4 1138.5 42.3 1135.5 40.3 Z M1168.1 9.4 C1168.1 11.4 1166.4 13 1164.3 13 C1162.2 13 1160.5 11.4 1160.5 9.4 C1160.5 7.4 1162.2 5.8 1164.3 5.8 C1166.4 5.8 1168.1 7.4 1168.1 9.4 Z M1167.3 42.6 L1161.3 42.6 L1161.3 17.1 L1167.3 17.1 Z M1188.2 37.1 L1188.2 42.1 C1187 42.8 1185 43.1 1183.2 43.1 C1178.6 43.1 1176.2 40.6 1176.2 35.9 L1176.2 21.9 L1172.4 21.9 L1172.4 16.9 L1176.2 16.9 L1176.2 9.9 L1182.1 8.6 L1182.1 16.9 L1188.2 16.9 L1188.2 21.9 L1182.1 21.9 L1182.1 34.5 C1182.1 36.8 1182.9 37.8 1184.9 37.8 C1186 37.9 1187.2 37.6 1188.2 37.1 Z M1203.8 26.8 C1205.5 26.8 1207 26.9 1208.6 27.3 L1208.6 26.4 C1208.6 23.2 1206.7 21.4 1203 21.4 C1201 21.4 1198.5 21.9 1196.5 22.9 L1195.2 17.9 C1197.5 17 1200.7 16.4 1203.5 16.4 C1210.7 16.4 1214.4 19.7 1214.4 26.2 L1214.4 42.5 L1208.7 42.5 L1208.7 39.8 L1208.6 39.8 C1206.4 42 1204.1 43.1 1201.1 43.1 C1196 43.1 1192.7 39.9 1192.7 35 C1192.8 29.7 1196.7 26.8 1203.8 26.8 Z M1198.9 13.2 C1197 13.2 1195.3 11.6 1195.3 9.7 C1195.3 7.9 1197 6.2 1198.9 6.2 C1200.8 6.2 1202.4 7.8 1202.4 9.7 C1202.5 11.6 1200.8 13.2 1198.9 13.2 Z M1202.8 38.7 C1205 38.7 1207 37.7 1208.6 35.7 L1208.6 31.3 C1207.2 31 1205.8 30.8 1204.4 30.8 C1200.7 30.8 1198.5 32.3 1198.5 34.9 C1198.5 37.2 1200.2 38.7 1202.8 38.7 Z M1209.3 13.2 C1207.4 13.2 1205.8 11.6 1205.8 9.7 C1205.8 7.9 1207.4 6.2 1209.3 6.2 C1211.3 6.2 1212.8 7.8 1212.8 9.7 C1212.9 11.6 1211.3 13.2 1209.3 13.2 Z M1234.8 37.1 L1234.8 42.1 C1233.6 42.8 1231.6 43.1 1229.8 43.1 C1225.2 43.1 1222.8 40.6 1222.8 35.9 L1222.8 21.9 L1219 21.9 L1219 16.9 L1222.8 16.9 L1222.8 9.9 L1228.7 8.6 L1228.7 16.9 L1234.8 16.9 L1234.8 21.9 L1228.7 21.9 L1228.7 34.5 C1228.7 36.8 1229.5 37.8 1231.5 37.8 C1232.7 37.9 1233.8 37.6 1234.8 37.1 Z M525.1 97.6 L502.1 97.6 L502.1 62.4 L524.5 62.4 L524.5 68.1 L508.3 68.1 L508.3 76.5 L520.7 76.5 L520.7 82.1 L508.3 82.1 L508.3 91.9 L525.1 91.9 L525.1 97.6 Z M546.7 72 L545.7 78.2 C544.7 77.7 543.6 77.4 542.4 77.4 C538.2 77.4 537.2 80.7 537.2 84.6 L537.2 97.7 L531.2 97.7 L531.2 72.1 L537.1 72.1 L537.1 75.3 L537.2 75.3 C538.5 72.9 541 71.5 543.9 71.5 C544.7 71.5 545.8 71.6 546.7 72 Z M557.6 97.6 L551.6 97.6 L551.6 61.8 L557.6 60.4 Z M574.8 81.8 C576.5 81.8 578 82 579.6 82.3 L579.6 81.4 C579.6 78.1 577.7 76.4 574 76.4 C572 76.4 569.6 76.9 567.5 77.8 L566.2 72.8 C568.5 71.9 571.7 71.3 574.6 71.3 C581.8 71.3 585.5 74.6 585.5 81.1 L585.5 97.4 L579.8 97.4 L579.8 94.7 L579.7 94.7 C577.5 96.9 575.2 98 572.2 98 C567 98 563.8 94.9 563.8 89.9 C563.8 84.7 567.7 81.8 574.8 81.8 Z M573.8 93.7 C576 93.7 578 92.7 579.6 90.7 L579.6 86.3 C578.2 86 576.7 85.8 575.4 85.8 C571.6 85.8 569.5 87.3 569.5 90 C569.5 92.2 571.2 93.7 573.8 93.7 Z M614.8 97.6 L608.8 97.6 L608.8 83 C608.8 79.3 607.7 76.8 604.1 76.8 C599.9 76.8 598.8 80.2 598.8 83 L598.8 97.6 L592.8 97.6 L592.8 72.1 L598.7 72.1 L598.7 75.2 L598.8 75.2 C600.3 72.9 603 71.5 606.3 71.5 C612.1 71.5 614.7 75.7 614.7 81.8 L614.7 97.6 Z M627.8 103.1 L629.1 103 C636.7 102.7 639 100.5 639 95.8 L639 94.1 L639 94.1 C637.2 96.4 634.3 97.7 631.3 97.7 C625.1 97.7 621.2 92.6 621.2 84.8 C621.2 76.8 625.3 71.4 631.6 71.4 C634.6 71.4 637.4 72.6 639.1 75 L639.1 75 L639.1 72 L645 72 L645 95 C645 103.2 640.8 107.4 629.7 107.8 L628.5 107.9 Z M627 84.7 C627 89.7 629.2 92.7 633 92.7 C635.2 92.7 637.2 91.6 639 89.4 L639 80.3 C637.2 78 635.2 76.9 632.9 76.9 C629.2 76.8 627 79.7 627 84.7 Z M673.9 94 C671 96.8 667.7 98.2 663.9 98.2 C656.3 98.2 651.3 92.8 651.3 84.8 C651.3 76.9 656.1 71.5 663.2 71.5 C670.1 71.5 674.6 76.6 674.6 84.5 C674.6 85.3 674.6 86.2 674.5 86.9 L657.3 86.9 C658 90.9 660.4 93.1 664 93.1 C666.3 93.1 668.2 92.1 670.3 90.1 Z M657.3 82.6 L668.8 82.6 C668.6 78.6 666.6 76.4 663.2 76.4 C659.8 76.4 657.7 78.6 657.3 82.6 Z M702.9 97.6 L696.9 97.6 L696.9 83 C696.9 79.3 695.8 76.8 692.2 76.8 C688 76.8 686.9 80.2 686.9 83 L686.9 97.6 L680.9 97.6 L680.9 72.1 L686.8 72.1 L686.8 75.2 L686.9 75.2 C688.4 72.9 691.1 71.5 694.4 71.5 C700.2 71.5 702.8 75.7 702.8 81.8 L702.8 97.6 Z M722.2 84.8 L709.7 84.8 L709.7 79.1 L722.2 79.1 Z M729.9 62.4 L736.3 62.4 L751.9 87 L752 87 L751.9 62.4 L758 62.4 L758 97.6 L751.8 97.6 L736 72.9 L735.9 72.9 L736 97.6 L729.8 97.6 L729.8 62.4 Z M772 87.4 C772 90.9 773.8 92.8 777.1 92.8 C780.3 92.8 782.1 91 782.1 87.3 L782.1 72.1 L788.1 72.1 L788.1 87.6 C788.1 94.3 784.3 98.2 777.4 98.2 C770.4 98.2 766.2 94.3 766.2 87.6 L766.2 72.1 L772.2 72.1 L772.2 87.4 Z M771.8 68.2 C769.9 68.2 768.3 66.6 768.3 64.7 C768.3 62.8 769.9 61.2 771.8 61.2 C773.8 61.2 775.4 62.8 775.4 64.7 C775.4 66.6 773.8 68.2 771.8 68.2 Z M782.2 68.2 C780.3 68.2 778.7 66.6 778.7 64.7 C778.7 62.8 780.3 61.2 782.2 61.2 C784.2 61.2 785.7 62.8 785.7 64.7 C785.8 66.6 784.2 68.2 782.2 68.2 Z M810.9 72 L809.9 78.2 C808.9 77.7 807.8 77.4 806.6 77.4 C802.4 77.4 801.4 80.7 801.4 84.6 L801.4 97.7 L795.4 97.7 L795.4 72.1 L801.3 72.1 L801.3 75.3 L801.4 75.3 C802.7 72.9 805.2 71.5 808.1 71.5 C808.9 71.5 810 71.6 810.9 72 Z M837.7 97.6 L831.7 97.6 L831.7 83 C831.7 79.3 830.6 76.8 827 76.8 C822.8 76.8 821.7 80.2 821.7 83 L821.7 97.6 L815.7 97.6 L815.7 72.1 L821.6 72.1 L821.6 75.2 L821.7 75.2 C823.2 72.9 825.9 71.5 829.2 71.5 C835 71.5 837.6 75.7 837.6 81.8 L837.6 97.6 Z M869.1 84.7 C869.1 92.9 864.9 98.2 858.6 98.2 C855.4 98.2 852.8 96.8 851.1 94.7 L851 94.7 L851 97.7 L845.2 97.7 L845.2 61.9 L851.2 60.4 L851.2 75 L851.3 75 C853 72.8 855.6 71.4 858.8 71.4 C864.9 71.5 869.1 76.4 869.1 84.7 Z M863.2 84.8 C863.2 79.6 861 76.8 857.2 76.8 C854.9 76.8 853 77.8 851.2 80.1 L851.2 89.4 C852.9 91.6 854.9 92.9 857.3 92.9 C861.2 92.8 863.2 89.9 863.2 84.8 Z M896.9 94 C894 96.8 890.7 98.2 886.9 98.2 C879.3 98.2 874.3 92.8 874.3 84.8 C874.3 76.9 879.1 71.5 886.2 71.5 C893.1 71.5 897.6 76.6 897.6 84.5 C897.6 85.3 897.6 86.2 897.5 86.9 L880.3 86.9 C881 90.9 883.4 93.1 887 93.1 C889.3 93.1 891.2 92.1 893.3 90.1 Z M880.2 82.6 L891.7 82.6 C891.5 78.6 889.4 76.4 886.1 76.4 C882.8 76.4 880.7 78.6 880.2 82.6 Z M919.4 72 L918.4 78.2 C917.4 77.7 916.3 77.4 915.1 77.4 C910.9 77.4 909.9 80.7 909.9 84.6 L909.9 97.7 L903.9 97.7 L903.9 72.1 L909.8 72.1 L909.8 75.3 L909.9 75.3 C911.2 72.9 913.7 71.5 916.6 71.5 C917.4 71.5 918.5 71.6 919.4 72 Z M929.5 103.1 L930.8 103 C938.4 102.7 940.7 100.5 940.7 95.8 L940.7 94.1 L940.7 94.1 C938.9 96.4 936 97.7 933 97.7 C926.8 97.7 922.9 92.6 922.9 84.8 C922.9 76.8 927 71.4 933.3 71.4 C936.3 71.4 939.1 72.6 940.8 75 L940.8 75 L940.8 72 L946.7 72 L946.7 95 C946.7 103.2 942.5 107.4 931.4 107.8 L930.2 107.9 Z M928.7 84.7 C928.7 89.7 930.9 92.7 934.7 92.7 C936.9 92.7 938.9 91.6 940.7 89.4 L940.7 80.3 C938.9 78 936.9 76.9 934.6 76.9 C930.9 76.8 928.7 79.7 928.7 84.7 Z"></path></g></g></g></svg> 